<svg class="InlineSVG Icon PromptPay-Logo Icon--md Icon--white" focusable="false" fill="white" color="white" viewBox="0 0 94 17"><path fill-rule="evenodd" clip-rule="evenodd" d="M0,8.00379055 L0,16 L28.6657106,16 L57.3314212,16 L57.3314212,8.00379055 L57.3314212,0.00756903994 L28.6657106,0.00756903994 L0,0.00756903994 L0,8.00379055 Z M58.7585209,0.196159241 C58.7186907,0.299959288 58.7039052,3.88120876 58.7254799,8.15466272 L58.7647067,15.9245639 L60.4243005,15.9245639 L62.0838942,15.9245639 L62.1249315,13.095726 L62.1659687,10.266873 L64.1617056,10.2659677 C66.5255707,10.2649116 67.635688,10.1058924 68.6952632,9.61661396 C70.3458047,8.85410605 70.9382796,7.80690238 71.0321221,5.48543244 C71.0797977,4.3090822 71.0327256,3.75176044 70.8320656,3.11402382 C70.3519904,1.58749929 69.122684,0.559912021 67.3193091,0.177149349 C66.1539725,-0.0699792508 58.8541739,-0.0538359296 58.7585209,0.196159241 Z M76.1904413,1.98912098 C74.1355625,2.3255659 72.9447285,3.42331175 72.5704147,5.3258097 L72.4592219,5.8915803 L73.9926865,5.8915803 L75.526302,5.8915803 L75.7177588,5.36201902 C75.9774098,4.64416927 76.5388051,4.38285869 77.8221237,4.38285869 C79.1080071,4.38285869 79.660501,4.71915274 79.660501,5.50202838 C79.660501,6.36094359 79.2793979,6.5533056 76.9262448,6.88145255 C74.1762979,7.26496958 73.0879062,7.81037244 72.4841158,9.10726954 C71.7525367,10.678754 72.168793,12.7374046 73.3845208,13.559507 C75.0614649,14.6933113 77.4164285,14.5231275 79.1268662,13.1446086 L79.7247725,12.6627229 L79.8857531,13.2375458 L80.0467337,13.8123688 L81.7395194,13.8550656 C83.5631112,13.9009307 83.6632903,13.8518973 83.1305607,13.1746321 C82.8461667,12.8131424 82.8288164,12.5625438 82.8288164,8.83222959 C82.8288164,4.58834657 82.7414614,3.97052508 82.0316079,3.19745612 C81.5531923,2.67649455 80.352099,2.18012514 79.0997092,1.9858018 C77.8735711,1.795552 77.3695072,1.79615549 76.1904413,1.98912098 Z M83.9532666,1.98021953 C83.9063454,2.0562591 84.7709937,4.88918566 86.5632041,10.5308993 L87.1024212,12.2283619 L86.6252126,13.9671636 C86.362695,14.9235422 86.1480039,15.7744461 86.1480039,15.8580293 C86.1480039,15.9535314 86.748626,15.9942669 87.7593186,15.9674116 C89.333217,15.92562 89.3730472,15.9158133 89.4776016,15.5473835 C89.5364418,15.3399343 89.9247867,13.9142075 90.3405904,12.3790832 C90.7562432,10.843959 91.5445503,7.95023094 92.0923671,5.94860998 C92.640033,3.94683815 93.0881233,2.19868242 93.0881233,2.06365183 C93.0881233,1.85243081 92.8672465,1.81803195 91.5098497,1.81803195 L89.9314251,1.81803195 L89.7625992,2.45923864 C88.9005156,5.73301366 88.6708882,6.34495114 88.5109637,5.79366427 C87.9623925,3.90353784 87.3166597,1.96814975 87.2333783,1.96498144 C85.6837703,1.90599042 83.9940021,1.91383578 83.9532666,1.98021953 Z M10.1561104,2.40205809 C11.2188539,2.92528274 11.6744878,3.68869588 11.743889,5.06193429 C11.8078588,6.3289587 11.5186369,7.05812385 10.6494624,7.82123524 C9.89781725,8.48130094 9.28165534,8.60546873 6.75530101,8.60637397 L4.53385931,8.6072792 L4.49221859,10.9835157 L4.45072875,13.3597523 L3.6586499,13.4053157 L2.86657106,13.4510299 L2.86657106,8.84143279 L2.86657106,4.23198653 L3.69636794,4.23198653 L4.52616483,4.23198653 L4.52616483,5.75489012 L4.52616483,7.27779372 L6.67609312,7.22287625 C9.58400315,7.14879802 10.1084348,6.84237666 10.1084348,5.21718174 C10.1084348,4.39462672 9.58008048,3.70544269 8.77864756,3.48290625 C8.47282969,3.39796522 7.01751682,3.32811141 5.54455192,3.3276588 L2.86657106,3.32675356 L2.86657106,2.63726779 L2.86657106,1.94778201 L6.14804056,1.9960611 C9.24408818,2.0416245 9.47054729,2.06455707 10.1561104,2.40205809 Z M52.7741767,3.89252417 L52.8185331,4.98634734 L53.2521397,4.98634734 C53.9788909,4.98634734 54.1631058,5.12680932 54.1631058,5.68141538 C54.1631058,6.18789323 54.1558639,6.19332462 53.4810128,6.19332462 L52.7989197,6.19332462 L52.8398061,9.1730498 L52.8806924,12.152775 L53.4841811,12.2282111 C54.0544778,12.2994227 54.0902345,12.3342742 54.1338366,12.8588567 C54.1797017,13.4101436 54.1753264,13.4148206 53.5039453,13.5156032 C52.6435214,13.6445989 51.8177981,13.3784604 51.4798444,12.8630811 C51.2609289,12.5296536 51.213555,11.986363 51.1725178,9.3394618 L51.123937,6.21022231 L50.5690292,6.16405542 C50.1212406,6.12679 50.0046164,6.05075043 49.9647862,5.77012821 C49.9106231,5.38796903 50.1959223,4.94108569 50.4097082,5.0732497 C50.4840881,5.11911484 50.6800711,5.11383431 50.8452761,5.0613308 C51.1062849,4.97850198 51.1456626,4.83200511 51.1456626,3.94517855 C51.1456626,3.38378324 51.1940925,2.87609842 51.2532344,2.81695653 C51.3123763,2.75781465 51.6687364,2.72945068 52.0453133,2.75404284 L52.7298203,2.798701 L52.7741767,3.89252417 Z M66.6854952,3.10557498 C67.4505679,3.55019523 67.7763009,4.26291532 67.6916616,5.30664893 C67.5489365,7.06461135 66.941827,7.44571443 64.1583865,7.52431883 L62.1593303,7.58074502 L62.1593303,5.2526367 C62.1593303,3.9720338 62.2101742,2.87308098 62.2724844,2.81016729 C62.3347947,2.74740447 63.2342945,2.7190405 64.2715406,2.74740447 C65.8327657,2.78979954 66.2484185,2.85150626 66.6854952,3.10557498 Z M17.0182289,5.60718628 L17.0634905,6.30331043 L16.3008318,6.40454565 C15.3648209,6.52871344 14.5611249,7.17293756 14.3373815,7.97844403 C14.252893,8.28290405 14.183341,9.63879216 14.1828884,10.9918137 L14.1819831,13.4517843 L13.4653404,13.4057683 L12.7486976,13.3597523 L12.7085656,9.25572775 L12.6684336,5.1518541 L13.1976932,5.05242934 C13.9707621,4.90744119 14.1819831,5.04066131 14.1819831,5.67341916 L14.1819831,6.21897289 L14.8719215,5.61171244 C15.570007,4.99721013 15.9126377,4.85388158 16.5959377,4.89069439 C16.9337405,4.90879904 16.9777951,4.98363164 17.0182289,5.60718628 Z M23.2398951,5.06374475 C24.9000923,5.64943048 25.7991395,7.04575233 25.7991395,9.03817009 C25.7991395,11.0364719 25.0165656,12.5543967 23.614058,13.2760182 C22.6100038,13.7927554 20.7652899,13.8184036 19.8396892,13.3283709 C18.4895342,12.6138403 17.8071394,11.4993477 17.6921748,9.82134748 C17.5305907,7.46457345 18.5058284,5.70178312 20.3313815,5.05016626 C21.0923807,4.77859637 22.4496267,4.784933 23.2398951,5.06374475 Z M32.5969865,4.98619646 C32.8920924,5.06827092 33.3247938,5.33486203 33.5583439,5.57867144 L33.9831999,6.02208472 L34.7235296,5.5127403 C36.3147783,4.41816278 38.3817269,4.74012397 39.113306,6.19634207 C39.3408212,6.64910942 39.3771814,7.18349862 39.3773323,10.0782828 L39.377634,13.4351884 L38.6232732,13.4351884 L37.8689124,13.4351884 L37.8689124,10.3494 C37.8689124,8.40918405 37.8067531,7.12707243 37.7014443,6.89593628 C37.1881772,5.76937385 35.1108184,6.04320682 34.5338833,7.31339955 C34.2952035,7.83918903 34.2541663,8.32907093 34.2512997,10.6900694 L34.2479805,13.4517843 L33.5313378,13.4057683 L32.814695,13.3597523 L32.7286979,10.1160008 C32.6814749,8.33193751 32.6304801,6.85791649 32.6155438,6.84041532 C32.003908,6.12331994 31.049189,5.98300883 30.2202973,6.48843057 C29.2696518,7.06808141 29.2016085,7.31521001 29.1183271,10.4860902 L29.042891,13.3597523 L28.3238343,13.4057683 L27.6047776,13.4519352 L27.6449095,9.25678385 L27.6850415,5.06178342 L28.0622219,5.03688951 C28.8333296,4.98619646 29.1183271,5.14174566 29.1183271,5.61337204 L29.1183271,6.05663445 L29.6840977,5.61397552 C30.6225225,4.87968072 31.5185523,4.68656435 32.5969865,4.98619646 Z M46.5140381,4.97578628 C47.6442215,5.23815297 48.7018353,6.25865227 49.0405433,7.41342779 C49.2832966,8.24141421 49.2318492,10.2051663 48.9432308,11.1227707 C48.5882286,12.2512945 47.6719819,13.1841371 46.6080315,13.5000634 C46.1692952,13.6302661 45.6699084,13.7364801 45.4982158,13.7360274 C44.9538691,13.7346696 44.1085324,13.4431846 43.550758,13.0646463 L43.0109374,12.6983287 L42.9670336,13.8588374 L42.9231298,15.019331 L42.206487,15.065347 L41.4898443,15.111363 L41.4898443,10.1160008 L41.4898443,5.12062356 L42.206487,5.16663957 C42.8179719,5.20586633 42.9302208,5.26244339 42.9714089,5.55211794 C43.0310034,5.97184429 43.1160953,5.97561609 43.5403478,5.57701185 C44.2142938,4.94380139 45.3698236,4.71025128 46.5140381,4.97578628 Z M20.84661,6.23390923 C20.1702501,6.45025991 19.6717685,7.14819453 19.3799817,8.2869776 C18.9896754,9.81063555 19.4400288,11.4904462 20.3952005,12.0728127 C21.0104571,12.4478809 22.294681,12.4827324 22.9533888,12.1420631 C24.0847792,11.5569808 24.5843169,8.86708106 23.8451942,7.34025479 C23.3206117,6.25654006 22.1385283,5.82036864 20.84661,6.23390923 Z M44.0821297,6.49959511 C43.3522102,6.94466798 42.9600935,7.93589808 42.9510412,9.35967867 C42.9379153,11.3911723 43.8149351,12.4676452 45.3809882,12.3418178 C46.2884842,12.2690974 46.8461077,11.9242037 47.2984225,11.1562644 C47.5398179,10.7464956 47.6001668,10.3727852 47.6001668,9.28620392 C47.6001668,7.71502124 47.3115483,6.93848223 46.5561314,6.47786952 C45.9214123,6.09073155 44.7355571,6.1012926 44.0821297,6.49959511 Z M79.6366632,9.4293816 C79.5948716,10.257368 79.4989169,10.664572 79.2720052,10.9758213 C78.8239149,11.5903236 77.775806,12.0773389 76.9012,12.0773389 C75.9443688,12.0773389 75.2852083,11.4934636 75.2852083,10.645713 C75.2852083,9.53785869 75.7716202,9.1839126 77.8921284,8.74955165 C78.6342686,8.59747251 79.2792471,8.43543581 79.3252631,8.38926893 C79.5963803,8.11815165 79.6875071,8.42261167 79.6366632,9.4293816 Z" id="Shape"></path></svg>