<svg 
 xmlns="http://www.w3.org/2000/svg"
 xmlns:xlink="http://www.w3.org/1999/xlink"
 width="2603px" height="2087px">
<path fill-rule="evenodd"  fill="rgb(255, 255, 255)"
 d="M364.000,0.000 C582.645,0.000 801.355,0.000 1019.1000,0.000 C1210.078,-0.009 1390.845,-1.900 1542.1000,36.1000 C1791.068,100.421 1969.383,215.878 2088.1000,406.1000 C2134.219,479.250 2165.125,557.300 2192.1000,648.1000 C2199.996,672.016 2209.082,698.431 2210.1000,724.1000 C2341.654,725.333 2472.346,725.667 2602.1000,726.000 C2602.667,799.992 2602.333,874.007 2602.000,948.000 C2480.679,948.000 2359.321,948.000 2237.1000,948.000 C2238.116,1011.301 2236.118,1076.983 2235.000,1137.000 C2357.654,1137.333 2480.346,1137.667 2602.1000,1137.1000 C2602.667,1211.993 2602.333,1286.008 2602.000,1359.1000 C2468.680,1359.1000 2335.320,1359.1000 2201.1000,1359.1000 C2188.468,1448.104 2140.955,1552.683 2101.1000,1618.1000 C1951.659,1874.941 1746.129,2002.865 1404.1000,2067.1000 C1278.073,2092.235 1135.906,2085.1000 985.1000,2085.1000 C778.687,2085.1000 571.312,2085.1000 364.000,2085.1000 C364.000,1844.024 364.000,1601.976 364.000,1359.1000 C242.679,1359.1000 121.321,1359.1000 -0.000,1359.1000 C-0.000,1285.674 -0.000,1211.326 -0.000,1137.000 C121.321,1137.000 242.679,1137.000 364.000,1137.000 C364.000,1074.006 364.000,1010.994 364.000,948.000 C242.679,948.000 121.321,948.000 -0.000,948.000 C-0.000,873.674 -0.000,799.326 -0.000,724.1000 C121.321,724.1000 242.679,724.1000 364.000,724.1000 C364.000,483.357 364.000,241.642 364.000,0.000 ZM924.1000,472.1000 C924.1000,852.629 924.1000,1232.371 924.1000,1611.1000 C1163.056,1613.089 1342.288,1624.349 1479.000,1521.000 C1604.350,1426.240 1656.974,1250.032 1657.000,1029.1000 C1657.008,964.332 1654.942,902.382 1641.1000,846.1000 C1617.550,742.367 1584.369,665.178 1528.000,594.1000 C1415.756,455.258 1176.087,472.840 924.1000,472.1000 Z"/>
</svg>